<svg width="15" height="15" viewBox="0 0 15 15" fill="none" xmlns="http://www.w3.org/2000/svg">
<path d="M0.0588999 13.5838L1.08866 10.5869C0.593367 9.58569 0.331421 8.46974 0.329663 7.34684C0.326674 5.41317 1.07483 3.58477 2.43639 2.19855C3.79814 0.812067 5.61277 0.0316518 7.54594 0.000977727C8.55877 -0.0152821 9.54156 0.17134 10.4685 0.555044C11.3626 0.925154 12.1644 1.46126 12.8515 2.14845C13.5388 2.83565 14.0749 3.63742 14.445 4.53148C14.8287 5.45844 15.0151 6.44173 14.999 7.45406C14.9684 9.38723 14.188 11.2019 12.8015 12.5637C11.418 13.9225 9.5943 14.6705 7.66479 14.6704C7.66102 14.6704 7.65703 14.6704 7.65325 14.6704C6.53036 14.6687 5.4144 14.4067 4.41317 13.9114L1.41629 14.9412C1.30104 14.9808 1.18291 15.0001 1.06607 15.0001C0.788514 15.0001 0.518512 14.8911 0.313785 14.6863C0.0228939 14.3954 -0.0748119 13.9729 0.0588999 13.5838ZM0.942645 14.0575C0.972147 14.087 1.03531 14.1317 1.12733 14.1001L4.30296 13.0089C4.34992 12.9928 4.39876 12.9848 4.44745 12.9848C4.51923 12.9848 4.59068 13.0022 4.6554 13.0364C5.57319 13.522 6.61031 13.7795 7.65466 13.7811C11.1571 13.7867 14.0544 10.9419 14.1099 7.43997C14.1378 5.67808 13.4676 4.02218 12.2227 2.77731C10.9779 1.53248 9.32245 0.8624 7.56006 0.890261C4.05818 0.945779 1.21358 3.84159 1.21903 7.34546C1.22067 8.38984 1.47817 9.42696 1.96368 10.3447C2.02116 10.4533 2.03109 10.5809 1.99116 10.6971L0.89996 13.8728C0.868348 13.9647 0.913114 14.028 0.942645 14.0575Z" fill="#3F3F3F"/>
<path d="M7.26258 10.6275C7.02999 10.6275 6.80716 10.8321 6.81791 11.0722C6.82869 11.3131 7.01329 11.5169 7.26258 11.5169C7.49517 11.5169 7.718 11.3124 7.70725 11.0722C7.69647 10.8313 7.51187 10.6275 7.26258 10.6275Z" fill="#3F3F3F"/>
<path d="M7.26259 3.74054C6.04269 3.74054 5.05022 4.73301 5.05022 5.95291C5.05022 6.19848 5.24933 6.39758 5.4949 6.39758C5.74046 6.39758 5.93957 6.19848 5.93957 5.95291C5.93957 5.22341 6.5331 4.62988 7.26259 4.62988C7.99209 4.62988 8.58562 5.22341 8.58562 5.95291C8.58562 6.6824 7.99209 7.27593 7.26259 7.27593C7.01702 7.27593 6.81792 7.47504 6.81792 7.7206V9.53424C6.81792 9.77981 7.01702 9.97891 7.26259 9.97891C7.50816 9.97891 7.70726 9.77984 7.70726 9.53421V8.12036C8.71476 7.91397 9.47496 7.02055 9.47496 5.95291C9.47496 4.73301 8.48249 3.74054 7.26259 3.74054Z" fill="#3F3F3F"/>
</svg>