<svg width="400" height="200" viewBox="0 0 400 200" fill="none" xmlns="http://www.w3.org/2000/svg">
<g clip-path="url(#clip0)">
<path d="M183.393 188.756H142.04V199.242H183.393V188.756Z" fill="#B8C5FF"/>
<path d="M399.042 188.756H337.888V199.242H399.042V188.756Z" fill="#B8C5FF"/>
<path d="M111.358 56.2072V154.849H290.133V56.2072H111.358ZM250.879 114.721H180.944V61.4155H250.879V114.721Z" fill="#DBE2FF"/>
<path d="M128.746 61.8349H119.545V71.028H128.746V61.8349Z" fill="white"/>
<path d="M128.746 74.2089H119.545V83.402H128.746V74.2089Z" fill="white"/>
<path d="M128.746 86.4431H119.545V95.6361H128.746V86.4431Z" fill="white"/>
<path d="M142.775 61.8349H133.574V71.028H142.775V61.8349Z" fill="white"/>
<path d="M142.775 74.2089H133.574V83.402H142.775V74.2089Z" fill="white"/>
<path d="M142.775 86.4431H133.574V95.6361H142.775V86.4431Z" fill="#5B74DE"/>
<path d="M141.028 89.9352L132.273 87.1065L129.442 95.8537L138.197 98.6824L141.028 89.9352Z" fill="white"/>
<path d="M156.804 61.8349H147.603V71.028H156.804V61.8349Z" fill="white"/>
<path d="M156.804 74.2089H147.603V83.402H156.804V74.2089Z" fill="white"/>
<path d="M156.804 86.4431H147.603V95.6361H156.804V86.4431Z" fill="white"/>
<path d="M170.798 61.8349H161.597V71.028H170.798V61.8349Z" fill="white"/>
<path d="M170.798 74.2089H161.597V83.402H170.798V74.2089Z" fill="white"/>
<path d="M170.798 86.4431H161.597V95.6361H170.798V86.4431Z" fill="white"/>
<path d="M235.171 43.3788C235.171 40.4077 237.585 37.9958 240.559 37.9958C241.783 37.9958 242.938 38.4152 243.847 39.1143L249.06 33.7313C246.786 31.7389 243.847 30.5504 240.594 30.5504C233.492 30.5504 227.754 36.283 227.754 43.3788C227.754 50.4746 233.492 56.2072 240.594 56.2072V48.7619C237.585 48.7269 235.171 46.315 235.171 43.3788Z" fill="#DBE2FF"/>
<path d="M253.398 43.3788C253.398 39.5338 251.719 36.1082 249.025 33.7663L243.812 39.1493C245.072 40.128 245.912 41.666 245.912 43.3788C245.912 46.35 243.498 48.7619 240.524 48.7619V56.2072C247.626 56.2072 253.398 50.4397 253.398 43.3788Z" fill="#1731A4"/>
<path d="M341.701 144.643C329.526 144.643 319.626 154.5 319.626 166.699C319.626 178.863 329.491 188.756 341.701 188.756C353.876 188.756 363.777 178.898 363.777 166.699C363.777 154.535 353.911 144.643 341.701 144.643ZM341.701 180.611C334.004 180.611 327.777 174.389 327.777 166.699C327.777 159.009 334.004 152.787 341.701 152.787C349.398 152.787 355.625 159.009 355.625 166.699C355.66 174.389 349.398 180.611 341.701 180.611Z" fill="#7288E8"/>
<path d="M341.701 144.643C336.873 144.643 332.395 146.216 328.757 148.837L333.515 155.409C335.824 153.731 338.623 152.752 341.701 152.752C346.949 152.752 351.497 155.653 353.876 159.918L360.978 155.968C357.235 149.222 349.993 144.643 341.701 144.643Z" fill="#304CC7"/>
<path d="M326.77 101.461L313.825 96.1492L311.499 101.807L324.444 107.119L326.77 101.461Z" fill="#90A3F5"/>
<path d="M332.85 85.8838C331.625 83.6816 330.086 83.5768 330.086 83.8215C330.086 84.0661 330.646 84.3458 330.576 84.5206C330.506 84.7303 327.252 84.7303 326.623 84.7303C325.993 84.7303 324.803 85.744 326.867 85.8838C328.932 86.0586 330.751 87.0722 330.751 87.0722L332.85 85.8838Z" fill="#90A3F5"/>
<path d="M352.617 91.1619L351.707 88.2257L352.197 86.4081L356.325 83.437L358.354 88.9598L352.617 91.1619Z" fill="#90A3F5"/>
<path d="M330.751 87.0722C338.273 95.1468 340.757 99.0267 343.73 100.32C346.704 101.613 364.057 94.4127 364.057 94.4127L360.173 91.6513C355.415 92.3504 348.453 94.4477 346.284 93.2243C345.585 92.8398 344.85 93.434 344.64 93.0844C343.52 91.092 342.891 92.8048 341.771 91.896C339.742 90.2182 332.535 85.4294 332.535 85.4294L330.751 87.0722Z" fill="#112882"/>
<path d="M363.532 187.952H357.724V188.756H363.532V187.952Z" fill="#112882"/>
<path d="M362.902 184.002L363.357 185.085C363.357 185.085 357.864 185.994 357.689 187.952H363.497L366.646 186.379L365.806 184.596L362.902 184.002Z" fill="#455FCC"/>
<path d="M366.646 186.379L363.147 188.022L363.462 188.756L366.961 187.113L366.646 186.379Z" fill="#112882"/>
<path d="M362.657 185.225L366.261 185.54L365.071 181.031L361.993 183.617L362.657 185.225Z" fill="#90A3F5"/>
<path d="M364.092 121.153C363.847 129.123 363.882 150.34 363.742 152.682C363.637 155.024 367.835 160.547 366.611 164.707C365.386 168.866 368.955 170.369 369.025 172.537C369.095 174.669 367.555 178.024 369.025 180.716C370.494 183.407 361.923 184.596 361.923 184.596C361.923 184.596 355.87 156.632 355.975 152.508C356.08 148.383 351.812 117.063 351.812 117.063L364.092 121.153Z" fill="#DBE2FF"/>
<path d="M358.144 130.451C356.045 134.436 359.194 139.819 358.879 146.81C358.564 153.766 358.004 156.143 358.914 158.275C359.824 160.407 358.704 169.915 358.704 169.915C358.704 169.915 355.8 158.59 355.485 154.64C355.171 150.69 353.211 130.486 353.211 130.486H358.144V130.451Z" fill="#B8C5FF"/>
<path d="M364.092 128.738C362.727 131.57 360.243 130.276 356.255 132.164C348.803 135.659 346.319 134.96 346.109 136.254C345.899 137.512 347.089 136.953 348.838 135.764C352.617 133.212 353.211 139.155 356.01 137.337C361.643 133.667 359.859 138.421 365.281 137.127C367.905 136.498 369.969 136.289 371.614 140.099C373.223 143.909 373.153 145.621 373.153 145.621C373.153 145.621 344.815 145.237 340.302 144.783C335.789 144.363 329.211 144.223 332.57 135.589C333.934 132.094 344.185 126.886 351.847 121.223C354.611 119.196 353.631 117.378 356.535 111.89C356.535 111.89 364.197 113.009 366.891 116.259C366.891 116.225 367.975 120.629 364.092 128.738Z" fill="#DBE2FF"/>
<path d="M347.054 96.4052C348.488 101.858 350.098 122.272 348.593 123.46C348.593 123.46 352.687 127.655 354.926 127.829C358.004 128.074 364.092 128.703 364.092 128.703C367.275 125.348 367.17 109.303 366.261 101.019C365.526 94.3428 364.092 89.6589 354.891 91.0571C351.672 91.5465 348.768 93.3991 348.768 93.3991L347.054 96.4052Z" fill="#1731A4"/>
<path d="M323.684 107.975C319.87 106.892 319.696 106.227 317.491 106.018C315.287 105.808 316.372 104.759 318.086 104.759C319.8 104.794 320.325 104.969 320.325 104.969C320.325 104.969 319.661 104.235 319.94 104.06C320.22 103.885 320.815 104.27 321.2 104.829C321.585 105.423 324.523 105.983 324.523 105.983L323.684 107.975Z" fill="#90A3F5"/>
<path d="M131.615 25.6917C136.303 26.4957 148.932 30.865 150.297 31.1447C151.661 31.3894 158.903 36.3879 160.198 39.2542C160.722 40.4426 160.128 41.0369 157.749 40.4426C155.37 39.8134 151.031 35.4441 148.478 35.0596C145.924 34.6751 132.349 30.7951 132.349 30.7951L131.615 25.6917Z" fill="#4D66A1"/>
<path d="M121.259 33.941C121.679 31.2146 123.953 27.0899 125.142 26.5656C126.332 26.0413 130.39 25.2024 131.615 25.6568C132.804 26.0762 134.553 29.327 134.553 29.7465L131.3 34.9547L121.259 33.941Z" fill="#4D66A1"/>
<path d="M162.717 50.3348L166.04 49.7755L166.53 50.7543C166.53 50.7543 167.474 52.537 167.754 53.0263L165.096 54.0051L162.717 50.3348Z" fill="#8EA7E3"/>
<path d="M172.442 54.2148C173.737 54.9488 173.527 55.5431 173.527 55.5431V56.1723C173.527 56.1723 166.46 56.1723 165.096 56.1723V54.0051L167.754 53.0263V53.0613C168.069 53.5157 171.148 53.4808 172.442 54.2148Z" fill="#7288E8"/>
<path d="M165.141 56.1742H173.573V55.3702H165.141V56.1742Z" fill="#112882"/>
<path d="M170.833 55.0187C170.763 55.0187 170.658 54.9838 170.588 54.9139C170.448 54.7741 170.413 54.5643 170.553 54.3896L171.288 53.5856C171.428 53.4458 171.638 53.4108 171.813 53.5506C171.953 53.6905 171.988 53.9002 171.848 54.075L171.113 54.8789C171.043 54.9838 170.938 55.0187 170.833 55.0187Z" fill="#112882"/>
<path d="M169.399 54.7741C169.329 54.7741 169.224 54.7391 169.154 54.6692C169.014 54.5294 168.979 54.3196 169.119 54.1449L169.854 53.3409C169.993 53.2011 170.203 53.1662 170.378 53.306C170.518 53.4458 170.553 53.6555 170.413 53.8303L169.679 54.6342C169.574 54.7391 169.504 54.7741 169.399 54.7741Z" fill="#112882"/>
<path d="M167.999 54.5993C167.929 54.5993 167.824 54.5643 167.754 54.4944C167.614 54.3546 167.579 54.1449 167.719 53.9701L168.454 53.1662C168.594 53.0263 168.804 52.9914 168.979 53.1312C169.119 53.271 169.154 53.4807 169.014 53.6555L168.279 54.4595C168.174 54.5643 168.104 54.5993 167.999 54.5993Z" fill="#112882"/>
<path d="M127.766 19.7494C127.171 17.2676 128.571 14.7859 130.845 14.2615C133.119 13.7372 135.498 15.3102 136.093 17.792C136.687 20.2738 135.043 23.7343 133.189 24.1887C131.37 24.6081 128.361 22.2312 127.766 19.7494Z" fill="#4D66A1"/>
<path d="M156.034 88.051L158.973 89.7288L158.728 90.8124C158.728 90.8124 158.343 92.8048 158.238 93.3641L155.58 92.4553L156.034 88.051Z" fill="#4D66A1"/>
<path d="M161.142 97.1742C161.702 98.5724 161.142 98.8869 161.142 98.8869L160.757 99.3763C160.757 99.3763 155.265 94.9371 154.18 94.0632L155.545 92.3504L158.203 93.2592V93.2942C158.168 93.8884 160.582 95.8109 161.142 97.1742Z" fill="#7288E8"/>
<path d="M154.212 94.0981L160.764 99.3994L161.27 98.7746L154.718 93.4734L154.212 94.0981Z" fill="#112882"/>
<path d="M159.778 96.8596C159.603 96.8596 159.463 96.7197 159.428 96.545C159.393 96.3352 159.533 96.1605 159.743 96.1255L160.827 95.9507C161.037 95.9158 161.212 96.0556 161.247 96.2653C161.282 96.4751 161.142 96.6498 160.932 96.6848L159.848 96.8596C159.848 96.8596 159.813 96.8596 159.778 96.8596Z" fill="#112882"/>
<path d="M158.658 95.8459C158.483 95.8459 158.343 95.706 158.308 95.5313C158.273 95.3216 158.413 95.1468 158.623 95.1118L159.708 94.9371C159.918 94.9021 160.093 95.0419 160.128 95.2516C160.163 95.4614 160.023 95.6361 159.813 95.6711L158.728 95.8459C158.728 95.8459 158.693 95.8459 158.658 95.8459Z" fill="#112882"/>
<path d="M157.749 94.5526C157.574 94.5526 157.434 94.4127 157.399 94.238C157.364 94.0282 157.504 93.8534 157.714 93.8185L158.798 93.6437C159.008 93.6088 159.183 93.7486 159.218 93.9583C159.253 94.168 159.113 94.3428 158.903 94.3778L157.819 94.5526C157.784 94.5526 157.749 94.5526 157.749 94.5526Z" fill="#112882"/>
<path d="M140.606 48.2725C142.81 45.2664 149.527 32.9623 149.492 34.9897C149.492 37.052 147.113 37.5763 149.562 39.6037C152.011 41.6311 152.886 42.5399 152.921 44.8819C152.956 48.1676 156.699 47.2938 157.574 49.8804C158.448 52.4321 157.504 53.2011 161.632 53.0962C165.795 52.9564 167.3 52.1874 167.3 52.1874C167.3 52.1874 158.098 32.2283 155.824 28.3133C153.55 24.3984 153.305 20.7631 147.673 22.406C143.125 23.7343 140.571 31.1796 134.273 38.7648C132.104 41.3864 129.341 42.5399 125.562 47.5035C125.527 47.5035 139.136 50.2649 140.606 48.2725Z" fill="#7288E8"/>
<path d="M118.985 54.7042C121.224 60.4717 144.699 57.8501 148.862 58.9686C153.026 60.0872 154.355 59.8075 153.305 61.765C152.221 63.7574 150.577 64.072 151.416 67.3228C152.256 70.5387 152.431 71.9019 150.926 73.9293C148.792 76.7955 152.676 78.2986 151.731 81.06C150.822 83.8214 150.017 86.1285 153.76 88.4704C157.504 90.8474 158.868 90.2881 158.868 90.2881C158.868 90.2881 164.151 62.7437 164.711 57.955C165.27 53.1662 163.696 53.6905 159.778 51.8029C155.859 49.9154 139.276 48.7968 134.623 46.8743C131.125 45.4412 129.096 37.2618 122.553 39.359C122.553 39.3241 117.76 51.5582 118.985 54.7042Z" fill="#90A3F5"/>
<path d="M121.259 33.941C119.685 36.8423 118.39 45.3712 117.725 51.6281C117.725 51.6281 120.979 48.9366 123.568 49.5309C126.052 50.0901 128.011 47.2588 130.67 47.6783C133.329 48.0977 135.253 44.1129 135.253 44.1129C135.253 44.1129 135.148 33.976 134.903 31.669C134.658 29.362 134.448 29.327 134.448 29.327C130.145 29.1872 121.259 33.941 121.259 33.941Z" fill="#DBE2FF"/>
<path d="M126.927 28.4182C128.816 32.3681 129.341 43.0293 129.76 43.9381C130.18 44.8469 130.88 45.4761 131.929 45.9655C133.679 46.8044 136.582 47.3287 138.822 47.9229C139.171 48.0278 139.486 48.0977 139.801 48.2026C142.075 48.9017 143.09 48.7968 143.16 49.8105C143.23 50.8242 139.416 50.1251 139.416 50.1251C139.416 50.1251 129.69 48.4123 127.906 47.888C126.122 47.3637 125.807 44.8819 125.247 42.0855C124.443 38.1706 123.183 33.6264 123.078 31.2146C122.938 28.8027 125.702 25.9364 126.927 28.4182Z" fill="#4D66A1"/>
<path d="M139.136 48.1676C140.361 48.1676 141.411 47.6084 141.725 47.9579C142.04 48.3074 140.781 48.7619 140.711 48.7968C140.641 48.8318 139.136 48.1676 139.136 48.1676Z" fill="#4D66A1"/>
<path d="M159.183 34.9897C156.874 35.2693 156.104 39.9882 158.273 39.7785C160.442 39.6037 161.527 38.1706 161.177 37.2967C160.897 36.5277 159.953 34.9198 159.183 34.9897Z" fill="#4D66A1"/>
<path d="M124.618 26.9501C126.542 23.9789 129.62 20.4835 129.62 20.4835L132.314 23.5245L131.79 26.6355L124.618 26.9501Z" fill="#4D66A1"/>
<path d="M126.822 21.9516C121.119 24.3984 110.518 14.7859 118.04 4.08971C123.953 -4.33438 138.997 1.22342 137.877 11.4302C137.702 13.0032 136.583 14.1217 136.583 14.1217C138.332 14.8208 139.626 15.7646 139.171 16.8482C138.122 19.2601 135.148 18.4561 133.924 17.792C132.349 16.988 131.79 16.0093 131.79 16.0093C131.79 16.0093 130.25 19.6795 129.9 19.9242C129.515 20.1689 129.341 18.6309 128.536 18.4211C127.731 18.2114 127.976 19.8892 128.291 20.3437C128.536 20.7981 127.521 21.6719 126.822 21.9516Z" fill="#112882"/>
<path d="M129.236 19.1552C129.935 15.2053 133.399 13.7023 136.583 14.1217C136.583 14.1217 134.938 12.6886 132.909 13.0381C130.845 13.3877 128.816 15.8695 128.781 18.561L129.236 19.1552Z" fill="#7288E8"/>
<path d="M124.618 26.9501C126.402 26.8802 128.431 30.6903 128.431 30.6903L128.851 30.5504C128.851 30.5504 127.136 27.5443 126.087 26.9501C125.002 26.3559 124.862 26.5656 124.862 26.5656L124.618 26.9501Z" fill="#DBE2FF"/>
<path d="M131.929 25.7267C132.944 27.0899 133.749 29.327 133.749 29.327L134.064 29.2921C134.064 29.2921 132.979 26.6355 132.174 25.7616L131.929 25.7267Z" fill="#DBE2FF"/>
<path d="M14.0991 152.822C14.5189 138.77 2.83381 140.238 0.699709 134.925C-1.43439 129.612 1.4344 125.767 6.01747 125.942C10.6005 126.117 11.7201 118.112 5.73759 116.714C-0.244894 115.316 1.57434 107.171 6.92709 107.591C12.2798 107.975 16.548 109.234 18.2623 114.617C19.9766 120 22.3906 115.386 28.1981 117.867C34.0057 120.349 30.822 129.088 25.0495 128.459C19.2419 127.829 15.9533 134.89 22.6005 138.036C29.2477 141.182 18.7871 153.207 18.7871 153.207L14.0991 152.822Z" fill="#D9E3FF"/>
<path d="M16.0582 155.269C15.9883 155.269 15.9183 155.269 15.8833 155.234C15.7084 155.129 15.6384 154.919 15.7434 154.745C15.7784 154.64 20.8862 145.866 14.4139 140.134C9.62095 135.904 12.6297 128.459 14.239 124.474C16.4781 118.951 12.9096 115.421 6.43729 111.541C6.26237 111.436 6.1924 111.226 6.29735 111.051C6.40231 110.876 6.61222 110.806 6.78715 110.911C13.3994 114.896 17.2827 118.741 14.8687 124.753C12.7346 130.067 10.8105 136.009 14.8687 139.609C21.7958 145.761 16.4081 155.059 16.3381 155.164C16.3031 155.199 16.1632 155.269 16.0582 155.269Z" fill="white"/>
<path d="M13.8542 126.606C13.7492 126.606 13.6793 126.571 13.6093 126.501C13.4693 126.361 13.4693 126.117 13.6093 125.977C13.7842 125.802 17.7026 121.957 25.0495 121.398C25.2594 121.398 25.4343 121.538 25.4343 121.747C25.4343 121.957 25.2944 122.132 25.0844 122.132C18.0174 122.691 14.1341 126.466 14.0991 126.501C14.0641 126.571 13.9591 126.606 13.8542 126.606Z" fill="white"/>
<path d="M12.2798 136.114C12.2099 136.114 12.1399 136.079 12.0699 136.044C12.0349 136.009 7.66178 132.933 3.35859 131.36C3.18366 131.29 3.0787 131.08 3.14868 130.905C3.21865 130.731 3.42856 130.626 3.60348 130.696C8.01163 132.339 12.4548 135.45 12.4897 135.485C12.6647 135.589 12.6997 135.834 12.5597 136.009C12.5247 136.079 12.3848 136.114 12.2798 136.114Z" fill="white"/>
<path d="M10.3906 165.685L18.8221 166.874L22.1107 154.71L10.6005 153.102L10.3906 165.685Z" fill="#90A3F5"/>
<path d="M22.28 153.398L10.7799 151.769L10.5883 153.119L22.0884 154.748L22.28 153.398Z" fill="#5B74DE"/>
<path d="M4.29438 168.105L114.891 185.007L115.43 181.482L4.83394 164.58L4.29438 168.105Z" fill="#E7EEFF"/>
<path d="M65.7318 185.024C67.0148 181.877 65.5019 178.287 62.3526 177.005C59.2033 175.723 55.6101 177.235 54.327 180.381C53.044 183.528 54.5569 187.118 57.7062 188.4C60.8556 189.682 64.4487 188.17 65.7318 185.024Z" fill="#455FCC"/>
<path d="M59.3 73.4399C59.6149 74.5934 59.7199 74.7332 59.6849 75.3274C59.6149 75.9217 60.2796 76.1664 60.4546 76.5509C60.6295 76.9354 60.3146 77.1451 59.9998 76.6907C59.6849 76.2363 58.8452 76.2712 58.9152 75.3974C58.9852 74.5235 58.1105 73.8594 58.1105 73.8594L59.3 73.4399Z" fill="#1731A4"/>
<path d="M60.3846 80.6755C64.4079 87.9461 65.8773 90.9872 67.5915 93.7136C68.5012 95.1468 68.781 95.2516 70.2154 94.8322C71.8597 94.3428 77.6323 89.6239 80.9909 89.4142C81.9355 89.3443 85.434 88.2957 84.4894 89.6239C83.6848 90.7774 80.5361 91.5814 80.5361 91.5814C80.5361 91.5814 70.2504 99.0967 68.4312 99.3064C66.612 99.5161 65.6324 99.1316 64.233 97.5587C62.5537 95.6711 57.4808 87.7364 57.4808 87.7364L60.3846 80.6755Z" fill="#8EA7E3"/>
<path d="M59.37 167.538C59.37 167.538 59.1601 170.02 59.1601 171.173C59.1601 172.152 58.9852 172.676 61.3991 173.096C63.7082 173.48 63.8131 173.9 63.9181 174.389H60.4545C60.4545 174.389 59.7898 174.389 58.0755 174.389C56.4662 174.389 56.6761 172.921 57.026 171.453C57.3059 170.334 56.6411 164.008 56.6411 164.008L59.44 165.825L59.37 167.538Z" fill="#8EA7E3"/>
<path d="M56.7949 175.248H63.8969V174.374H56.7949V175.248Z" fill="#1731A4"/>
<path d="M61.9939 173.201L61.819 174.354H59.2301L59.7199 172.572L61.9939 173.201Z" fill="#DBE2FF"/>
<path d="M59.6849 100.809C59.6849 100.809 62.2388 135.17 61.679 137.197C61.1193 139.26 59.405 166.175 59.405 166.175C59.405 166.175 56.921 164.182 54.647 164.637C53.3875 164.881 52.1281 164.147 51.7432 162.784C51.3934 161.491 51.4983 160.267 51.7782 159.429C52.373 157.541 52.6878 156.073 51.4983 151.039C50.3088 146.006 54.2971 142.65 53.2476 139.225C52.198 135.799 53.3875 100.774 53.3875 100.774H59.6849V100.809Z" fill="#B8C5FF"/>
<path d="M36.9794 163.868C36.9794 163.868 35.2652 166.175 34.8103 166.839C34.3555 167.503 33.9707 168.097 35.9299 169.565C37.8191 170.964 37.959 170.929 37.8191 171.383L34.4255 170.824C34.4255 170.824 33.6908 170.544 32.0465 169.81C30.1923 169.006 31.0669 168.027 32.7812 165.965C33.5159 165.091 35.8249 159.289 35.8249 159.289L37.4692 162.19L36.9794 163.868Z" fill="#8EA7E3"/>
<path d="M59.6849 100.809C59.335 106.996 57.1309 128.808 55.3117 135.38C53.4925 141.916 36.7345 164.147 36.7345 164.147C36.7345 164.147 36.4546 161.805 34.5654 160.862C32.3964 159.778 32.0115 159.044 32.0115 159.044C32.0115 159.044 30.6471 157.646 34.2856 155.129C37.924 152.577 33.8308 148.732 38.4138 146.251C45.096 142.65 38.3439 141.322 43.8715 135.974C46.7053 133.247 42.9269 112.1 45.4808 107.73C48.0348 103.361 49.1193 100.809 49.1193 100.809H59.6849Z" fill="#DBE2FF"/>
<path d="M38.0989 162.33C37.2943 163.518 36.7345 164.147 36.7345 164.147C36.7345 164.147 36.2447 161.77 34.2506 161.036C33.0261 160.582 32.2914 159.883 31.9066 159.184C31.5917 158.555 31.3818 157.681 32.2214 156.982C32.9561 157.821 34.1806 158.205 35.9648 159.429C37.3293 160.267 37.889 161.561 38.0989 162.33Z" fill="#7288E8"/>
<path d="M30.4722 169.985L30.787 169.181L34.3905 170.824L37.7841 171.383L37.6791 172.222L33.9007 171.628L30.4722 169.985Z" fill="#1731A4"/>
<path d="M35.8949 169.53L35.3001 170.964L34.3905 170.824L32.7812 170.09L34.6004 168.342L35.8949 169.53Z" fill="#DBE2FF"/>
<path d="M59.44 165.825L59.335 167.538C59.335 167.538 58.1805 166.21 55.9764 166.105C53.8073 166 53.1426 165.79 52.5479 165.126C51.9881 164.427 51.7432 162.854 51.7432 162.854C51.7432 162.854 53.4575 164.182 55.4167 164.217C57.9006 164.252 58.9852 165.056 59.44 165.825Z" fill="#7288E8"/>
<path d="M49.1425 100.813H59.7081V99.5549H49.1425V100.813Z" fill="#B8C5FF"/>
<path d="M59.6849 99.5511C60.8744 96.2653 61.644 97.4188 60.6295 91.4416C59.6149 85.4993 62.4137 83.7166 60.3846 80.6755C58.3554 77.6345 52.0231 78.0539 48.3147 79.1026C47.9998 79.2074 47.7199 79.3472 47.44 79.557C44.7812 81.7242 45.7607 89.6938 46.3205 93.7835C46.9152 98.2577 49.1193 99.5511 49.1193 99.5511H59.6849Z" fill="#1731A4"/>
<path d="M49.784 80.6755C52.9327 84.8351 57.096 96.7198 57.7957 97.6985C58.4954 98.6772 59.475 99.2015 60.8044 99.5511C63.3933 100.18 65.0726 100.565 67.8714 100.809C70.7052 101.089 71.4749 100.705 71.7898 101.893C72.1047 103.047 67.9764 102.522 67.9764 102.522C67.9764 102.522 58.7753 102.872 56.5362 102.697C54.3321 102.522 53.3875 99.6559 52.0931 96.5799C50.2388 92.2106 48.0348 87.4567 47.3351 84.6953C46.6354 81.9339 47.7899 78.0539 49.784 80.6755Z" fill="#8EA7E3"/>
<path d="M71.5799 102.347C73.5391 101.334 73.679 99.7608 72.9793 99.5161C72.2446 99.2714 70.7752 100.74 69.4808 101.054C68.2213 101.404 71.5799 102.347 71.5799 102.347Z" fill="#8EA7E3"/>
<path d="M80.816 90.1482C80.8859 87.7363 80.1513 86.8974 79.8014 88.6801C79.4516 90.4628 79.6615 91.3018 79.6615 91.3018L80.816 90.1482Z" fill="#8EA7E3"/>
<path d="M56.7811 74.4536C56.5362 75.4673 56.4313 78.5433 56.4313 78.5433C56.4313 78.5433 56.7461 80.6406 55.2068 80.6755C53.7024 80.7454 51.1485 78.5083 51.1485 78.5083L53.0027 74.0341L56.7811 74.4536Z" fill="#90A3F5"/>
<path d="M51.3234 71.8669C50.7286 69.3852 52.1281 66.9034 54.4021 66.379C56.7111 65.8198 59.0551 67.4277 59.6499 69.9095C60.2446 72.3913 58.6003 75.8518 56.7461 76.3062C54.9269 76.7256 51.9181 74.3487 51.3234 71.8669Z" fill="#90A3F5"/>
<path d="M59.6499 72.2514C59.8248 71.4824 59.0552 70.8882 58.8452 69.7697C58.8452 69.7697 57.1659 73.1952 54.8569 73.0554C54.8569 73.0554 53.9823 73.5797 54.1572 74.6633C54.3321 75.7469 52.8278 75.9217 53.0027 76.5858C53.2126 77.2849 52.4429 77.0053 52.5479 76.3411C52.6528 75.677 53.1076 75.4673 53.4925 75.1527C53.8773 74.8381 53.2826 74.2788 53.2826 73.5797C53.2826 72.8806 53.7024 72.7408 53.5974 71.9718C53.4925 71.2028 51.9881 71.063 52.5129 72.5311C52.8628 73.5448 52.7928 74.5235 52.7928 74.5235C52.7928 74.5235 51.7082 73.7195 50.9735 71.6922C50.6237 70.6785 49.889 66.5538 52.5129 65.7149C55.1718 64.876 57.8657 65.4003 59.37 67.5675C60.9444 69.6298 59.6499 72.2514 59.6499 72.2514Z" fill="#1731A4"/>
<path d="M52.0931 67.7423C53.6002 67.7423 54.8219 66.5216 54.8219 65.0158C54.8219 63.51 53.6002 62.2893 52.0931 62.2893C50.586 62.2893 49.3642 63.51 49.3642 65.0158C49.3642 66.5216 50.586 67.7423 52.0931 67.7423Z" fill="#1731A4"/>
<path d="M280.792 161.316C284.29 158.415 286.04 155.828 284.605 150.62C283.206 145.412 286.704 144.957 290.308 142.86C293.876 140.763 288.873 136.393 291.217 133.457C293.561 130.521 297.865 129.717 298.109 134.785C298.354 139.854 302.308 142.615 298.844 145.831C295.381 149.047 292.617 148.872 293.107 151.843C294.576 160.582 287.894 166.21 284.85 166.385C281.841 166.559 280.792 161.316 280.792 161.316Z" fill="#DBE2FF"/>
<path d="M281.771 163.483C281.632 163.483 281.527 163.413 281.457 163.309C281.352 163.134 281.422 162.924 281.597 162.819C286.389 160.093 288.838 155.304 288.104 149.956C287.649 146.705 290.238 145.412 292.337 144.363C293.526 143.769 294.681 143.21 294.891 142.406C295.521 140.064 294.716 136.358 294.681 136.323C294.646 136.114 294.751 135.939 294.961 135.904C295.171 135.869 295.346 135.974 295.381 136.184C295.416 136.358 296.255 140.134 295.556 142.615C295.241 143.734 293.981 144.363 292.617 145.027C290.553 146.041 288.419 147.124 288.803 149.851C289.573 155.479 287.019 160.582 281.946 163.448C281.876 163.448 281.841 163.483 281.771 163.483Z" fill="white"/>
<path d="M284.29 160.198H255.847V189.07H284.29V160.198Z" fill="#B8C5FF"/>
<path d="M229.363 128.424C229.363 128.424 228.104 127.76 227.544 126.781C226.984 125.837 226.46 127.27 226.74 127.585C227.019 127.899 227.089 128.424 227.089 128.424H229.363Z" fill="#90A3F5"/>
<path d="M261.2 122.132C255.917 124.229 242.658 129.088 242.658 129.088L244.967 133.387L260.29 129.682L261.2 122.132Z" fill="#90A3F5"/>
<path d="M258.576 187.952H252.769V188.756H258.576V187.952Z" fill="#112882"/>
<path d="M257.981 184.002L258.436 185.085C258.436 185.085 252.944 185.994 252.769 187.952H258.576L261.725 186.379L260.885 184.596L257.981 184.002Z" fill="#DBE2FF"/>
<path d="M261.69 186.379L258.191 188.022L258.541 188.756L262.04 187.113L261.69 186.379Z" fill="#112882"/>
<path d="M257.737 185.225L261.305 185.54L260.78 183.617H257.072L257.737 185.225Z" fill="#8EA7E3"/>
<path d="M222.751 182.918L219.428 182.359L218.938 183.338C218.938 183.338 217.993 185.12 217.713 185.61L220.372 186.588L222.751 182.918Z" fill="#8EA7E3"/>
<path d="M213.025 186.798C211.731 187.532 211.941 188.126 211.941 188.126V188.756C211.941 188.756 219.008 188.756 220.372 188.756V186.588L217.713 185.61V185.645C217.398 186.099 214.32 186.064 213.025 186.798Z" fill="#DBE2FF"/>
<path d="M299.929 188.756H208.792V199.242H299.929V188.756Z" fill="#90A3F5"/>
<path d="M270.366 113.079C271.101 110.632 269.841 108.08 267.567 107.416C265.293 106.752 262.879 108.22 262.145 110.667C261.41 113.114 262.879 116.679 264.699 117.203C266.518 117.728 269.631 115.525 270.366 113.079Z" fill="#90A3F5"/>
<path d="M230.553 158.904C230.553 158.904 219.568 182.114 218.028 185.05C218.028 185.05 224.151 184.911 226.775 186.274C229.398 187.637 233.387 184.177 233.562 179.737C233.772 175.298 238.25 172.467 239.019 169.6C239.789 166.734 238.04 164.986 239.964 162.505C241.853 160.023 247.976 160.967 247.976 160.967V148.558C247.976 148.558 241.014 148.558 237.655 148.558C234.296 148.523 231.987 155.863 230.553 158.904Z" fill="#1731A4"/>
<path d="M243.323 156.667C241.993 154.115 242.413 148.593 248.011 148.593C253.608 148.593 279.497 148.593 279.497 148.593C279.497 148.593 280.932 155.863 277.643 158.31C274.354 160.757 272.92 160.337 267.637 160.337C264.699 160.337 262.984 160.267 258.401 160.198C252.209 160.093 261.97 164.777 262.285 168.342C262.564 171.872 260.85 172.187 264.139 174.529C267.462 176.871 270.261 183.407 264.839 184.037C257.177 184.911 255.637 184.526 255.637 184.526C255.637 184.526 244.652 159.219 243.323 156.667Z" fill="#1731A4"/>
<path d="M263.894 186.938C263.824 186.938 263.754 186.903 263.684 186.868C263.579 186.798 261.165 184.841 261.69 180.331C261.9 178.444 260.255 177.675 258.471 176.871C256.617 176.032 254.518 175.053 254.938 172.572C255.637 168.342 255.462 167.014 252.559 164.951C250.879 163.763 249.27 161.526 249.725 159.429C249.97 158.24 250.984 156.667 254.308 155.933C256.057 155.549 258.156 155.374 260.325 155.164C266.133 154.64 273.34 154.011 279.392 149.362C279.567 149.257 279.777 149.257 279.917 149.432C280.022 149.606 280.022 149.816 279.847 149.956C273.62 154.71 266.273 155.374 260.395 155.898C258.226 156.108 256.162 156.283 254.448 156.632C252.104 157.122 250.704 158.135 250.425 159.568C250.11 161.106 251.159 163.064 252.979 164.357C256.162 166.594 256.407 168.237 255.672 172.676C255.358 174.599 256.932 175.333 258.786 176.172C260.605 177.011 262.704 177.955 262.425 180.401C261.97 184.491 264.139 186.274 264.139 186.274C264.314 186.414 264.314 186.623 264.209 186.798C264.104 186.903 263.999 186.938 263.894 186.938Z" fill="white"/>
<path d="M220.337 187.952H211.906V188.756H220.337V187.952Z" fill="#112882"/>
<path d="M214.6 187.567C214.495 187.567 214.39 187.532 214.32 187.427L213.585 186.623C213.445 186.483 213.48 186.239 213.62 186.099C213.76 185.959 214.005 185.994 214.145 186.134L214.88 186.938C215.019 187.078 214.984 187.322 214.845 187.462C214.775 187.532 214.705 187.567 214.6 187.567Z" fill="#112882"/>
<path d="M216.139 187.357C216.034 187.357 215.929 187.322 215.859 187.218L215.124 186.414C214.984 186.274 215.019 186.029 215.159 185.889C215.299 185.749 215.544 185.784 215.684 185.924L216.419 186.728C216.559 186.868 216.524 187.113 216.384 187.252C216.314 187.322 216.244 187.357 216.139 187.357Z" fill="#112882"/>
<path d="M217.678 187.148C217.573 187.148 217.468 187.113 217.398 187.008L216.664 186.204C216.524 186.064 216.559 185.819 216.699 185.68C216.839 185.54 217.084 185.575 217.224 185.714L217.958 186.518C218.098 186.658 218.063 186.903 217.923 187.043C217.853 187.113 217.748 187.148 217.678 187.148Z" fill="#112882"/>
<path d="M254.728 187.497C254.623 187.497 254.518 187.462 254.448 187.357L253.713 186.553C253.573 186.414 253.608 186.169 253.748 186.029C253.888 185.889 254.133 185.924 254.273 186.064L255.008 186.868C255.148 187.008 255.113 187.253 254.973 187.392C254.903 187.462 254.798 187.497 254.728 187.497Z" fill="#112882"/>
<path d="M256.127 187.008C256.022 187.008 255.917 186.973 255.847 186.868L255.113 186.064C254.973 185.924 255.008 185.68 255.148 185.54C255.288 185.4 255.532 185.435 255.672 185.575L256.407 186.379C256.547 186.518 256.512 186.763 256.372 186.903C256.302 186.973 256.232 187.008 256.127 187.008Z" fill="#112882"/>
<path d="M257.597 186.623C257.492 186.623 257.387 186.588 257.317 186.483L256.582 185.68C256.442 185.54 256.477 185.295 256.617 185.155C256.757 185.015 257.002 185.05 257.142 185.19L257.876 185.994C258.016 186.134 257.981 186.379 257.841 186.518C257.737 186.588 257.667 186.623 257.597 186.623Z" fill="#112882"/>
<path d="M256.687 148.523C256.687 148.523 260.395 145.237 260.745 141.846C261.2 137.197 260.5 130.102 259.766 126.187C259.031 122.237 263.229 120.419 266.448 120.244C269.666 120.07 282.121 120.594 282.366 129.053C282.646 137.512 280.197 153.556 279.357 155.409C279.357 155.409 273.165 149.082 268.547 148.523H256.687Z" fill="white"/>
<path d="M262.145 130.766C262.425 134.751 263.754 141.427 262.145 144.678L270.331 145.377C270.331 145.377 272.29 142.021 271.346 131.64L262.145 130.766Z" fill="#1731A4"/>
<path d="M258.016 128.424H212.57V149.117H258.016V128.424Z" fill="white"/>
<path d="M275.439 128.424C275.579 132.618 273.655 138.665 277.538 138.665C281.387 138.7 280.407 128.214 280.337 128.109C280.267 128.004 275.439 128.424 275.439 128.424Z" fill="#7288E8"/>
<path d="M265.083 120.594C265.923 120.244 267.078 120.839 269.562 121.083C272.045 121.328 272.675 120.664 272.675 120.664L269.037 113.498L265.118 114.721V120.594H265.083Z" fill="#90A3F5"/>
<path d="M281.876 127.655C284.08 135.729 283.731 143.314 283.276 147.544C282.821 151.773 267.532 148.418 261.2 148.488C258.436 148.523 257.981 148.418 254.693 147.824C252.419 147.404 252.804 143.454 258.366 145.726C258.366 145.726 257.632 144.608 258.401 144.503C259.171 144.398 259.206 145.307 260.815 145.796C262.425 146.286 274.494 146.425 276.594 145.901C278.693 145.377 278.098 143.07 277.993 141.637C277.888 140.203 276.978 134.925 275.859 130.521C274.809 126.501 275.299 122.062 277.993 122.446C280.687 122.831 281.247 125.348 281.876 127.655Z" fill="#90A3F5"/>
<path d="M263.299 126.571C263.229 126.571 263.159 126.536 263.124 126.466C263.089 126.361 263.124 126.257 263.194 126.222C263.194 126.222 264.139 125.767 264.314 124.998C264.384 124.614 264.244 124.229 263.894 123.81C263.229 123.041 262.984 122.411 263.124 121.887C263.264 121.433 263.684 121.118 264.419 120.943C264.524 120.908 264.629 120.978 264.629 121.083C264.664 121.188 264.594 121.293 264.489 121.293C263.894 121.433 263.544 121.677 263.439 121.992C263.334 122.377 263.544 122.901 264.139 123.565C264.559 124.054 264.734 124.579 264.629 125.068C264.419 125.977 263.369 126.501 263.299 126.536C263.334 126.571 263.299 126.571 263.299 126.571Z" fill="#112882"/>
<path d="M269.561 129.298C269.492 129.298 269.457 129.263 269.422 129.228C269.352 129.158 269.387 129.018 269.457 128.983C269.457 128.983 270.611 128.074 270.506 127.13C270.436 126.571 269.981 126.117 269.107 125.697C267.637 124.998 266.798 124.229 266.623 123.32C266.448 122.481 266.938 121.782 267.217 121.468C267.287 121.398 267.392 121.398 267.462 121.468C267.532 121.538 267.532 121.642 267.462 121.712C267.217 121.992 266.798 122.551 266.938 123.25C267.078 124.019 267.882 124.718 269.247 125.348C270.226 125.802 270.786 126.396 270.856 127.06C270.996 128.214 269.736 129.193 269.666 129.228C269.631 129.263 269.596 129.298 269.561 129.298Z" fill="#112882"/>
<path d="M262.215 109.653C260.57 109.024 259.311 108.954 259.241 110.003C259.136 111.016 259.136 112.519 263.579 112.519C267.987 112.484 268.302 113.358 268.617 113.114C268.932 112.869 269.072 112.17 269.527 112.345C269.981 112.484 269.527 113.498 269.142 113.813C268.757 114.162 269.597 114.686 269.597 114.686C269.597 114.686 271.031 113.917 270.961 111.645C270.891 109.373 269.247 106.892 267.288 106.787C265.293 106.612 262.565 107.031 262.215 109.653Z" fill="#1731A4"/>
<path d="M262.215 109.653C265.993 110.003 270.506 113.183 270.401 113.848C270.401 113.848 271.976 111.541 270.961 107.276C270.086 103.571 267.078 103.291 263.894 106.542C262.39 108.115 262.215 109.653 262.215 109.653Z" fill="#7288E8"/>
<path d="M222.436 128.424C221.492 131.115 223.661 132.793 225.13 131.535C226.6 130.276 227.264 129.158 227.334 128.424C227.404 127.69 225.515 127.34 224.361 127.375C223.206 127.41 222.681 127.794 222.436 128.424Z" fill="#90A3F5"/>
<path d="M222.226 145.167C225.415 145.167 227.999 142.585 227.999 139.399C227.999 136.214 225.415 133.632 222.226 133.632C219.038 133.632 216.454 136.214 216.454 139.399C216.454 142.585 219.038 145.167 222.226 145.167Z" fill="#DBE2FF"/>
<path d="M250.949 136.044H233.142C232.582 136.044 232.162 135.589 232.162 135.065C232.162 134.506 232.617 134.086 233.142 134.086H250.949C251.509 134.086 251.929 134.541 251.929 135.065C251.929 135.624 251.474 136.044 250.949 136.044Z" fill="#DBE2FF"/>
<path d="M250.949 140.378H233.142C232.582 140.378 232.162 139.924 232.162 139.399C232.162 138.84 232.617 138.421 233.142 138.421H250.949C251.509 138.421 251.929 138.875 251.929 139.399C251.929 139.959 251.474 140.378 250.949 140.378Z" fill="#DBE2FF"/>
<path d="M240.209 144.713H233.142C232.582 144.713 232.162 144.258 232.162 143.734C232.162 143.175 232.617 142.755 233.142 142.755H240.209C240.769 142.755 241.188 143.21 241.188 143.734C241.188 144.258 240.734 144.713 240.209 144.713Z" fill="#DBE2FF"/>
<path d="M224.501 138.561C224.501 137.197 223.486 136.079 222.226 136.079C220.967 136.079 219.952 137.162 219.952 138.526C219.952 139.225 220.267 139.959 220.722 140.518C221.177 141.077 221.737 141.497 222.226 141.497C223.206 141.497 224.501 139.924 224.501 138.561Z" fill="#90A3F5"/>
<path d="M225.655 143.944C225.655 143.035 224.116 142.301 222.191 142.301C220.267 142.301 218.728 143.035 218.728 143.909C218.728 144.363 219.218 144.852 219.882 145.237C220.547 145.621 221.422 145.866 222.191 145.901C223.731 145.901 225.655 144.852 225.655 143.944Z" fill="#90A3F5"/>
<path d="M286.003 188.544C289.969 187.6 292.418 183.622 291.473 179.66C290.528 175.697 286.547 173.25 282.581 174.194C278.615 175.139 276.166 179.116 277.111 183.079C278.056 187.041 282.037 189.488 286.003 188.544Z" fill="#1731A4"/>
<path d="M138.332 118.322C141.795 122.132 145.539 129.193 146.728 129.752C147.883 130.276 158.133 124.509 158.133 124.509L158.763 126.711C158.763 126.711 147.883 133.492 146.273 134.156C144.664 134.82 136.827 123.32 136.827 123.32L138.332 118.322Z" fill="#8EA7E3"/>
<path d="M164.536 179.982L167.824 180.681L167.929 181.765C167.929 181.765 168.139 183.757 168.244 184.351L165.41 184.281L164.536 179.982Z" fill="#8EA7E3"/>
<path d="M172.163 187.183C173.107 188.336 172.687 188.826 172.687 188.826L172.477 189.42C172.477 189.42 165.935 186.833 164.606 186.309L165.41 184.281L168.244 184.351V184.386C168.314 184.911 171.218 186.029 172.163 187.183Z" fill="#1731A4"/>
<path d="M90.495 173.906H156.932V161.008H90.495V173.906Z" fill="#DBE2FF"/>
<path d="M103.623 160.974H170.06V148.075H103.623V160.974Z" fill="#B8C5FF"/>
<path d="M148.827 113.463C149.282 110.946 147.778 108.569 145.469 108.115C143.16 107.661 140.886 109.373 140.396 111.89C139.941 114.407 141.76 117.797 143.58 118.112C145.469 118.497 148.373 115.98 148.827 113.463Z" fill="#8EA7E3"/>
<path d="M132.559 148.068C138.192 147.754 143.44 152.193 149.142 154.395C154.81 156.597 155.649 158.24 155.405 160.512C155.23 161.875 153.76 162.295 156.804 165.616C158.693 167.678 155.37 169.216 156.209 171.942C156.874 174.11 159.953 171.348 159.323 177.605C158.833 182.149 161.877 180.366 164.851 181.835C167.684 183.233 171.533 180.821 171.533 180.821C171.533 180.821 166.215 161.351 164.081 155.199C161.912 149.047 160.198 146.146 154.32 142.93C151.451 141.357 146.868 139.504 143.335 138.665C130.425 135.659 128.011 136.428 128.011 136.428L116.221 140.518C116.221 140.518 116.011 142.091 116.851 144.748C118.145 148.732 124.757 148.068 124.757 148.068H132.559Z" fill="#1731A4"/>
<path d="M136.373 137.232C147.463 138.945 156.454 137.617 160.477 138.77C163.381 139.609 164.606 144.188 162.856 146.111C160.442 148.767 156.979 148.278 141.69 154.78C143.195 152.473 135.953 148.383 141.69 144.852C144.139 143.349 146.553 146.425 146.448 143.524C146.378 142.056 153.166 142.336 153.166 142.336L136.373 137.232Z" fill="#304CC7"/>
<path d="M164.606 186.309L164.886 185.575L172.652 188.826L172.442 189.42L164.606 186.309Z" fill="#90A3F5"/>
<path d="M139.521 147.474C140.256 146.041 141.55 145.412 141.515 146.635C141.48 147.893 141.306 149.431 141.725 150.096C142.11 150.76 142.95 154.325 141.725 154.78C140.501 155.234 140.326 152.193 139.871 150.375C139.416 148.593 139.521 147.474 139.521 147.474Z" fill="#112882"/>
<path d="M141.515 146.67C141.445 148.208 141.445 149.571 141.725 150.131L140.116 150.69C140.116 150.69 138.262 151.529 137.772 151.773L135.253 149.641L141.515 146.67Z" fill="#8EA7E3"/>
<path d="M140.081 155.129C140.431 156.562 139.836 156.842 139.836 156.842L139.381 157.296C139.381 157.296 134.553 152.158 133.609 151.144L135.183 149.641L138.192 151.564C138.052 152.053 139.731 153.661 140.081 155.129Z" fill="#1731A4"/>
<path d="M133.609 151.109L134.203 150.585L139.871 156.842L139.346 157.331L133.609 151.109Z" fill="#90A3F5"/>
<path d="M116.221 140.518L128.011 136.463L117.061 136.638L116.221 140.518Z" fill="#1731A4"/>
<path d="M117.061 136.638C117.061 136.638 121.609 125.208 123.708 121.747C128.431 113.952 137.002 114.861 139.871 118.741C141.305 120.699 139.346 125.977 137.597 127.62C134.064 130.905 128.711 136.428 128.711 136.428L117.061 136.638Z" fill="white"/>
<path d="M126.472 119.79C123.743 122.167 121.714 128.354 123.568 128.039C129.096 127.095 130.285 122.132 131.125 120.139C131.964 118.147 129.76 116.924 126.472 119.79Z" fill="#8EA7E3"/>
<path d="M158.588 129.193L149.947 139.574H160.862L169.119 129.193H158.588Z" fill="white"/>
<path d="M125.387 124.159C125.667 126.361 130.495 136.254 133.084 140.518C133.539 141.252 134.518 142.65 135.778 142.545C140.816 142.126 148.408 139.295 149.947 138.84C152.326 138.141 153.55 139.085 154.88 138.211C156.244 137.337 157.119 134.681 155.475 135.135C153.83 135.589 152.571 136.323 152.571 136.323C152.571 136.323 153.69 135.24 153.41 134.855C153.131 134.471 151.941 135.764 151.556 136.079C150.822 136.708 138.087 138.561 136.792 138.456C135.498 138.351 132.174 120.384 131.23 118.951C130.32 117.553 125.387 124.159 125.387 124.159Z" fill="#8EA7E3"/>
<path d="M157.434 124.893C158.903 123.635 159.918 124.264 160.722 125.557C161.527 126.851 160.233 128.039 159.918 127.445C159.568 126.851 158.798 126.746 158.798 126.746L157.434 124.893Z" fill="#8EA7E3"/>
<path d="M160.442 128.529C160.337 128.529 160.233 128.494 160.163 128.389L156.699 123.81C156.594 123.635 156.594 123.425 156.769 123.285C156.944 123.18 157.154 123.18 157.294 123.355L160.757 127.934C160.862 128.109 160.862 128.319 160.687 128.459C160.582 128.494 160.512 128.529 160.442 128.529Z" fill="#112882"/>
<path d="M158.063 126.921C159.078 126.851 160.093 126.222 159.358 125.977C158.588 125.732 157.749 125.732 157.749 125.732L158.063 126.921Z" fill="#8EA7E3"/>
<path d="M134.099 115.84C133.259 116.329 134.273 122.796 136.827 124.544C139.136 126.117 139.416 118.986 139.731 118.252C140.046 117.518 143.23 114.267 143.23 114.267L140.851 112.03C140.886 112.03 136.932 114.232 134.099 115.84Z" fill="#8EA7E3"/>
<path d="M133.784 113.044C129.236 114.162 128.746 118.601 132.769 120.943C132.769 120.943 136.373 120.594 136.792 117.553C137.247 114.582 133.784 113.044 133.784 113.044Z" fill="#1731A4"/>
<path d="M132.804 120.035C129.69 120.524 127.101 125.348 133.154 127.13C138.542 123.565 132.804 120.035 132.804 120.035Z" fill="#1731A4"/>
<path d="M132.734 126.466C129.201 130.311 131.685 131.674 134.868 133.108C136.198 130.381 135.953 129.088 132.734 126.466Z" fill="#1731A4"/>
<path d="M133.924 121.048C133.889 121.048 133.819 121.048 133.784 121.013C133.784 121.013 132.699 120.559 131.58 120.629C131.37 120.664 131.195 120.489 131.195 120.279C131.195 120.07 131.335 119.895 131.545 119.895C132.839 119.79 134.029 120.314 134.099 120.314C134.273 120.384 134.378 120.594 134.273 120.804C134.204 120.943 134.064 121.048 133.924 121.048Z" fill="white"/>
<path d="M133.644 127.27C133.609 127.27 133.574 127.27 133.539 127.27C133.539 127.27 132.979 127.13 131.964 127.27C131.755 127.305 131.58 127.165 131.545 126.956C131.51 126.746 131.65 126.571 131.859 126.536C133.049 126.361 133.714 126.536 133.749 126.536C133.959 126.606 134.064 126.781 133.994 126.991C133.959 127.165 133.784 127.27 133.644 127.27Z" fill="white"/>
<path d="M133.329 113.218C132.909 111.331 136.128 111.715 138.192 109.758C140.256 107.8 146.693 104.829 148.897 108.36C151.136 111.89 150.297 115.316 148.652 115.56C146.973 115.805 143.51 115.106 143.754 113.917C143.999 112.729 143.09 112.065 142.6 112.729C142.11 113.428 142.145 114.022 141.76 114.127C136.792 115.84 135.638 113.079 134.273 114.057C132.979 115.036 133.329 113.218 133.329 113.218Z" fill="#1731A4"/>
<path d="M135.253 114.162C135.148 114.162 135.078 114.127 134.973 114.057C134.973 114.057 133.994 113.044 132.909 113.288C132.699 113.323 132.524 113.218 132.489 113.009C132.454 112.799 132.559 112.624 132.769 112.589C134.238 112.275 135.463 113.498 135.498 113.568C135.638 113.708 135.638 113.952 135.498 114.092C135.428 114.127 135.358 114.162 135.253 114.162Z" fill="white"/>
<path d="M285.968 23.5436L272.077 21.8434L268.074 54.4924L281.965 56.1926L285.968 23.5436Z" fill="#90A3F5"/>
<path d="M269.161 12.2379L255.19 11.4568L252.727 55.4293L266.699 56.2104L269.161 12.2379Z" fill="#90A3F5"/>
<path d="M305.863 31.7508L292.241 28.5476L286.006 55.019L299.627 58.2222L305.863 31.7508Z" fill="#90A3F5"/>
<path d="M319.335 50.7229L306.132 46.0907L300.684 61.5912L313.888 66.2234L319.335 50.7229Z" fill="#90A3F5"/>
<path d="M335.507 76.0752L325.612 66.1886L316.929 74.864L326.824 84.7506L335.507 76.0752Z" fill="#90A3F5"/>
<path d="M323.719 105.808C322.599 106.647 323.299 108.115 322.914 109.653C322.914 109.653 337.153 111.576 338.797 111.75C340.477 111.925 341.491 110.737 342.891 108.954C344.325 107.171 352.302 102.557 353.106 101.578C353.911 100.6 351.322 90.6027 348.104 93.9234C346.879 95.1818 343.031 98.083 340.372 101.718C338.902 103.711 338.518 104.2 338.657 104.934C338.902 106.332 336.803 105.144 336.209 105.563C335.614 105.983 335.894 106.787 334.634 106.787C333.41 106.752 323.719 105.808 323.719 105.808Z" fill="#1731A4"/>
<path d="M368.885 136.953C367.065 136.953 369.899 140.343 370.599 142.58C371.299 144.817 371.649 145.586 373.153 145.586C374.657 145.586 372.628 139.854 371.474 138.63C370.284 137.337 369.514 136.953 368.885 136.953Z" fill="#5B74DE"/>
<path d="M368.64 136.953C368.15 137.162 368.045 137.512 368.745 138.805C369.445 140.134 369.584 140.413 369.584 140.413L374.762 139.819L375.952 136.953H368.64Z" fill="#90A3F5"/>
<path d="M377.386 143.874C378.506 144.887 378.996 144.468 378.996 144.468L379.59 144.293C379.59 144.293 377.316 137.617 376.896 136.288L374.832 136.988L374.762 139.819H374.797C375.322 139.924 376.267 142.86 377.386 143.874Z" fill="#455FCC"/>
<path d="M376.131 136.571L378.829 144.552L379.591 144.295L376.893 136.314L376.131 136.571Z" fill="#112882"/>
<path d="M351.707 93.2243L351.987 90.8124L358.354 88.9598L360.908 91.4766L351.707 93.2243Z" fill="#1731A4"/>
<path d="M356.71 83.0525C357.445 80.6056 356.185 78.0539 353.911 77.3898C351.637 76.7256 349.223 78.1937 348.488 80.6406C347.754 83.0874 349.223 86.6528 351.042 87.1771C352.897 87.7014 356.01 85.4993 356.71 83.0525Z" fill="#90A3F5"/>
<path d="M180.944 108.115C193.434 108.115 190.32 99.9705 199.311 99.7259C208.302 99.4812 206.868 90.6726 214.6 90.6027C223.591 90.5328 220.582 106.018 230.763 105.528C240.944 105.039 237.83 88.0859 250.879 88.0859V114.756H180.909V108.115H180.944Z" fill="#DBE2FF"/>
<path d="M351.287 76.411C350.168 77.6694 349.503 78.8229 349.503 78.8229C349.503 78.8229 349.783 80.4658 349.958 81.4096C350.133 82.3533 351.462 83.2971 351.707 83.4369C351.707 83.4369 352.022 82.598 352.652 82.633C353.281 82.6679 353.211 83.6816 352.652 84.1011C352.092 84.4856 353.141 85.9537 353.666 85.8838C354.226 85.8139 356.71 84.5205 356.71 84.5205C356.71 84.5205 357.375 80.291 357.689 79.2773C356.185 76.7955 354.296 75.5721 351.287 76.411Z" fill="#1731A4"/>
<path d="M180.944 110.562C193.434 110.562 190.32 105.424 199.311 105.284C208.302 105.144 206.868 99.5861 214.6 99.5511C223.556 99.5161 220.582 109.234 230.763 108.954C240.944 108.639 237.795 97.9781 250.844 97.9781V114.721H180.944V110.562Z" fill="#90A3F5"/>
<path d="M199.906 108.744L204.209 111.016C204.209 111.016 211.206 107.346 211.206 107.171C211.206 106.996 211.206 101.683 211.206 101.683L206.483 107.171L199.906 108.744Z" fill="white"/>
<path d="M199.906 108.744L204.069 104.34L211.241 101.683L206.518 107.206L199.906 108.744Z" fill="#DBE2FF"/>
<path d="M203.859 108.989C203.894 108.989 203.474 101.718 203.474 101.718L207.813 104.165L203.859 108.989Z" fill="white"/>
<path d="M272.71 61.8V88.6102C272.71 88.82 272.885 88.9947 273.095 88.9947C273.305 88.9947 273.48 88.82 273.48 88.6102V61.8C273.48 61.5902 273.305 61.4155 273.095 61.4155C272.885 61.4155 272.71 61.5902 272.71 61.8Z" fill="#8EA7E3"/>
<path d="M258.401 61.8V83.3321C258.401 83.5418 258.576 83.7166 258.786 83.7166C258.996 83.7166 259.171 83.5418 259.171 83.3321V61.8C259.171 61.5902 258.996 61.4155 258.786 61.4155C258.576 61.4155 258.401 61.5902 258.401 61.8Z" fill="#8EA7E3"/>
<path d="M272.71 97.279V103.361C272.71 103.571 272.885 103.746 273.095 103.746C273.305 103.746 273.48 103.571 273.48 103.361V97.279C273.48 97.0693 273.305 96.8945 273.095 96.8945C272.885 96.8945 272.71 97.0693 272.71 97.279Z" fill="#8EA7E3"/>
<path d="M265.573 61.8V73.1603C265.573 73.37 265.748 73.5448 265.958 73.5448C266.168 73.5448 266.343 73.37 266.343 73.1603V61.8C266.343 61.5902 266.168 61.4155 265.958 61.4155C265.748 61.4155 265.573 61.5902 265.573 61.8Z" fill="#8EA7E3"/>
<path d="M273.095 95.0769C274.177 95.0769 275.054 94.2005 275.054 93.1194C275.054 92.0383 274.177 91.1619 273.095 91.1619C272.013 91.1619 271.136 92.0383 271.136 93.1194C271.136 94.2005 272.013 95.0769 273.095 95.0769Z" fill="#455FCC"/>
<path d="M265.573 81.3397V103.396C265.573 103.606 265.748 103.781 265.958 103.781C266.168 103.781 266.343 103.606 266.343 103.396V81.3397C266.343 81.1299 266.168 80.9552 265.958 80.9552C265.748 80.9552 265.573 81.1299 265.573 81.3397Z" fill="#8EA7E3"/>
<path d="M258.401 90.8473V103.361C258.401 103.571 258.576 103.746 258.786 103.746C258.996 103.746 259.171 103.571 259.171 103.361V90.8473C259.171 90.6376 258.996 90.4628 258.786 90.4628C258.576 90.4628 258.401 90.6376 258.401 90.8473Z" fill="#8EA7E3"/>
<path d="M265.958 79.2773C267.04 79.2773 267.917 78.4009 267.917 77.3199C267.917 76.2388 267.04 75.3624 265.958 75.3624C264.876 75.3624 263.999 76.2388 263.999 77.3199C263.999 78.4009 264.876 79.2773 265.958 79.2773Z" fill="#455FCC"/>
<path d="M258.786 88.9947C259.868 88.9947 260.745 88.1183 260.745 87.0373C260.745 85.9562 259.868 85.0798 258.786 85.0798C257.704 85.0798 256.827 85.9562 256.827 87.0373C256.827 88.1183 257.704 88.9947 258.786 88.9947Z" fill="#455FCC"/>
<path d="M83.5575 78.4605C85.1371 78.0879 86.1152 76.5064 85.7422 74.9283C85.3692 73.3501 83.7864 72.3729 82.2069 72.7455C80.6273 73.1182 79.6492 74.6996 80.0222 76.2778C80.3952 77.8559 81.978 78.8332 83.5575 78.4605Z" fill="#1731A4"/>
<path d="M84.6294 57.5704C84.6294 56.5917 83.8597 55.8227 82.8801 55.8227C81.9005 55.8227 81.1308 56.5917 81.1308 57.5704C81.1308 58.5492 81.9005 59.3182 82.8801 59.3182C83.8597 59.2832 84.6294 58.5142 84.6294 57.5704Z" fill="#7288E8"/>
<path d="M75.7431 38.9396C75.7431 37.6812 74.7285 36.6675 73.4691 36.6675C72.2096 36.6675 71.195 37.6812 71.195 38.9396C71.195 40.1979 72.2096 41.2116 73.4691 41.2116C74.7285 41.2116 75.7431 40.1979 75.7431 38.9396Z" fill="#1731A4"/>
<path d="M65.4225 51.4184C66.8716 51.4184 68.0463 50.2447 68.0463 48.7968C68.0463 47.3489 66.8716 46.1752 65.4225 46.1752C63.9733 46.1752 62.7986 47.3489 62.7986 48.7968C62.7986 50.2447 63.9733 51.4184 65.4225 51.4184Z" fill="#7288E8"/>
<path d="M67.1717 73.8594C67.1717 72.8806 66.4021 72.1116 65.4225 72.1116C64.4429 72.1116 63.6732 72.8806 63.6732 73.8594C63.6732 74.8381 64.4429 75.6071 65.4225 75.6071C66.4021 75.6071 67.1717 74.8031 67.1717 73.8594Z" fill="#1731A4"/>
<path d="M70.0405 90.9522C71.0066 90.9522 71.7898 90.1697 71.7898 89.2045C71.7898 88.2392 71.0066 87.4567 70.0405 87.4567C69.0744 87.4567 68.2913 88.2392 68.2913 89.2045C68.2913 90.1697 69.0744 90.9522 70.0405 90.9522Z" fill="#1731A4"/>
<path d="M66.437 188.756H3.49853V199.242H66.437V188.756Z" fill="#90A3F5"/>
</g>
<defs>
<clipPath id="clip0">
<rect width="399.042" height="199.242" fill="white"/>
</clipPath>
</defs>
</svg>
