<svg width="38" height="38" viewBox="0 0 38 38" fill="none" xmlns="http://www.w3.org/2000/svg">
<path d="M19 0C8.49826 0 0 8.49826 0 19C0 29.5017 8.49826 38 19 38C20.5411 38 22.8308 38 25.2746 38L9.68714 22.4125V15.5875H15.5875V9.68714H22.4125L38 25.2746C38 22.8308 38 20.5411 38 19C38 8.49826 29.4797 0 19 0Z" fill="url(#paint0_linear)"/>
<path d="M22.4125 15.5875H28.3129V22.4125H22.4125V28.3129H15.5875V22.4125H9.68715L25.2746 38C31.153 38 38 38 38 38C38 38 38 31.153 38 25.2746L22.4125 9.68716V15.5875Z" fill="url(#paint1_linear)"/>
<path d="M28.3129 15.5875H22.4125V9.68716H15.5875V15.5875H9.68715V22.4125H15.5875V28.3129H22.4125V22.4125H28.3129V15.5875Z" fill="white"/>
<defs>
<linearGradient id="paint0_linear" x1="28.0352" y1="4.26045" x2="3.14286" y2="46.3057" gradientUnits="userSpaceOnUse">
<stop stop-color="#FF285D"/>
<stop offset="1" stop-color="#E90039"/>
</linearGradient>
<linearGradient id="paint1_linear" x1="42.4269" y1="42.4269" x2="19.3081" y2="19.3081" gradientUnits="userSpaceOnUse">
<stop stop-color="#FF285D"/>
<stop offset="1" stop-color="#CB0032"/>
</linearGradient>
</defs>
</svg>
