<svg width="15" height="15" viewBox="0 0 15 15" fill="none" xmlns="http://www.w3.org/2000/svg">
<path d="M7.5 0C3.36457 0 0 3.36457 0 7.5C0 11.6354 3.36457 15 7.5 15C11.6354 15 15 11.6354 15 7.5C15 3.36457 11.6354 0 7.5 0ZM7.5 14.375C3.7091 14.375 0.62499 11.2909 0.62499 7.5C0.62499 3.7091 3.7091 0.62499 7.5 0.62499C11.2909 0.62499 14.375 3.7091 14.375 7.5C14.375 11.2909 11.2909 14.375 7.5 14.375Z" fill="#3F3F3F"/>
<path d="M11.5249 8.76311C11.3556 8.72253 11.1883 8.82689 11.1486 8.99473C10.7458 10.6906 9.24557 11.875 7.49995 11.875C5.75221 11.875 4.25136 10.6888 3.85035 8.99077C3.81036 8.82232 3.64099 8.72007 3.47438 8.75821C3.30622 8.79788 3.20216 8.96634 3.24182 9.13418C3.70996 11.116 5.46106 12.5 7.49995 12.5C9.53638 12.5 11.2869 11.1181 11.7566 9.13937C11.7965 8.97123 11.6928 8.80277 11.5249 8.76311Z" fill="#3F3F3F"/>
<path d="M5.00003 6.24998C5.3452 6.24998 5.62502 5.97016 5.62502 5.62499C5.62502 5.27982 5.3452 5 5.00003 5C4.65486 5 4.37504 5.27982 4.37504 5.62499C4.37504 5.97016 4.65486 6.24998 5.00003 6.24998Z" fill="#3F3F3F"/>
<path d="M9.99999 6.24998C10.3452 6.24998 10.625 5.97016 10.625 5.62499C10.625 5.27982 10.3452 5 9.99999 5C9.65482 5 9.375 5.27982 9.375 5.62499C9.375 5.97016 9.65482 6.24998 9.99999 6.24998Z" fill="#3F3F3F"/>
</svg>
