<svg width="26" height="27" viewBox="0 0 26 27" fill="none" xmlns="http://www.w3.org/2000/svg">
<path d="M17.7388 9.12957C17.7388 10.9347 16.7297 12.5005 15.2471 13.3016C14.5812 13.6605 13.8113 13.8686 12.9998 13.8686C12.1883 13.8686 11.4236 13.6657 10.7525 13.3016C9.26994 12.5005 8.26074 10.9347 8.26074 9.12957C8.26074 6.51295 10.3832 4.39572 12.9946 4.39572C15.6216 4.39572 17.7388 6.51295 17.7388 9.12957Z" fill="#1731A4"/>
<path d="M24.9854 7.94351C24.3299 6.3933 23.3936 5.00436 22.1971 3.80789C21.0006 2.61142 19.6117 1.67506 18.0615 1.0196C16.4644 0.343334 14.7582 0 13.0051 0C11.252 0 9.54573 0.343334 7.94351 1.0248C6.3933 1.68026 5.00436 2.61662 3.80789 3.81309C2.61142 5.00956 1.67506 6.3985 1.0196 7.94871C0.343334 9.54573 0 11.252 0 13.0051C0 14.7582 0.343334 16.4644 1.0248 18.0667C1.67506 19.6117 2.61142 21.0006 3.79749 22.1919L3.80269 22.1971L3.80789 22.2023L3.8339 22.2283C5.01996 23.4092 6.40371 24.3403 7.93831 24.9906C9.54053 25.6668 11.2468 26.0154 12.9999 26.0154C14.753 26.0154 16.4592 25.672 18.0615 24.9906C19.5909 24.3455 20.9642 23.4248 22.1451 22.2543L22.1919 22.2075L22.1971 22.2023L22.2075 22.1919C23.3936 21.0006 24.3247 19.6169 24.975 18.0771C25.6512 16.4748 25.9998 14.7686 25.9998 13.0155C26.0102 11.252 25.6668 9.54573 24.9854 7.94351ZM23.404 17.3956C22.941 18.4932 22.3115 19.4972 21.5312 20.3972C21.1463 17.6713 19.4816 15.3564 17.1615 14.0767C16.8286 14.3576 16.4592 14.6073 16.0691 14.8206C15.1327 15.3252 14.0715 15.5905 13.0051 15.5905C11.9387 15.5905 10.8775 15.3252 9.94109 14.8206C9.54573 14.6073 9.18159 14.3576 8.84866 14.0767C6.53376 15.3564 4.8691 17.6713 4.47895 20.3972C3.69865 19.5024 3.0744 18.4932 2.60622 17.3956C2.01839 16.0067 1.72187 14.5293 1.72187 13.0051C1.72187 11.4809 2.01839 10.0035 2.60622 8.61457C3.17324 7.27245 3.98996 6.06557 5.02517 5.02517C6.06037 3.98996 7.26724 3.17324 8.60937 2.60622C9.99831 2.01839 11.4757 1.72187 12.9999 1.72187C14.5241 1.72187 16.0015 2.01839 17.3904 2.60622C18.7325 3.17324 19.9394 3.98996 20.9746 5.02517C22.0098 6.06037 22.8265 7.26724 23.3936 8.61457C23.9814 10.0035 24.2779 11.4809 24.2779 13.0051C24.2779 14.5293 23.9918 16.0067 23.404 17.3956Z" fill="#1731A4"/>
</svg>
